<?xml version="1.0" encoding="UTF-8" standalone="no"?>
<!-- Generator: Adobe Illustrator 23.0.1, SVG Export Plug-In . SVG Version: 6.00 Build 0)  -->

<svg
   version="1.1"
   id="Capa_1"
   x="0px"
   y="0px"
   viewBox="0 0 197.7 97"
   style="enable-background:new 0 0 197.7 97;"
   xml:space="preserve"
   sodipodi:docname="logo-ipap-1.svg"
   inkscape:version="1.1.1 (3bf5ae0d25, 2021-09-20)"
   xmlns:inkscape="http://www.inkscape.org/namespaces/inkscape"
   xmlns:sodipodi="http://sodipodi.sourceforge.net/DTD/sodipodi-0.dtd"
   xmlns="http://www.w3.org/2000/svg"
   xmlns:svg="http://www.w3.org/2000/svg"><defs
   id="defs121">
	
	
	
	
</defs><sodipodi:namedview
   id="namedview119"
   pagecolor="#ffffff"
   bordercolor="#666666"
   borderopacity="1.0"
   inkscape:pageshadow="2"
   inkscape:pageopacity="0.0"
   inkscape:pagecheckerboard="0"
   showgrid="false"
   showguides="true"
   inkscape:guide-bbox="true"
   inkscape:zoom="1.4896308"
   inkscape:cx="94.318674"
   inkscape:cy="67.466383"
   inkscape:window-width="1440"
   inkscape:window-height="837"
   inkscape:window-x="-8"
   inkscape:window-y="-8"
   inkscape:window-maximized="1"
   inkscape:current-layer="Capa_1"><sodipodi:guide
     position="131.31214,42.790998"
     orientation="0,-1"
     id="guide17529" /><sodipodi:guide
     position="192.30001,57.099998"
     orientation="0,-1"
     id="guide17531" /></sodipodi:namedview>
<style
   type="text/css"
   id="style2">
	.st0{fill:#00AEC3;}
</style>
<g
   id="g102">
		<path
   class="st0"
   d="M 13.1,54.3 V 40.1 h 3.1 v 14.2 z"
   id="path94" />
		<path
   class="st0"
   d="m 18.8,40.3 c 1.5,-0.3 2.9,-0.4 4.3,-0.4 2.1,0 3.7,0.4 4.8,1.2 1.1,0.8 1.6,2.1 1.6,3.9 0,1.7 -0.5,3 -1.6,3.8 -1,0.9 -2.6,1.3 -4.6,1.3 -0.3,0 -0.8,0 -1.4,0 v 4.2 h -3.1 z m 6.9,6.9 c 0.5,-0.4 0.7,-1.1 0.7,-2.1 0,-1 -0.2,-1.7 -0.7,-2.2 -0.5,-0.5 -1.3,-0.7 -2.3,-0.7 -0.5,0 -1,0 -1.5,0.1 v 5.4 c 0.5,0.1 0.9,0.1 1.4,0.1 1.1,0 1.9,-0.2 2.4,-0.6 z"
   id="path96" />
		<path
   class="st0"
   d="m 39.8,54.3 -1.2,-3.8 h -5.3 l -1.2,3.8 H 29 l 4.6,-14.2 h 4.6 l 4.6,14.2 z M 34.1,48 h 3.8 L 36,42 Z"
   id="path98" />
		<path
   class="st0"
   d="m 44.3,40.3 c 1.5,-0.3 2.9,-0.4 4.3,-0.4 2.1,0 3.7,0.4 4.8,1.2 1.1,0.8 1.6,2.1 1.6,3.9 0,1.7 -0.5,3 -1.6,3.8 -1.1,0.8 -2.6,1.3 -4.6,1.3 -0.3,0 -0.8,0 -1.4,0 v 4.2 h -3.1 z m 6.9,6.9 c 0.5,-0.4 0.7,-1.1 0.7,-2.1 0,-1 -0.2,-1.7 -0.7,-2.2 -0.5,-0.5 -1.3,-0.7 -2.3,-0.7 -0.5,0 -1,0 -1.5,0.1 v 5.4 c 0.5,0.1 0.9,0.1 1.4,0.1 1.1,0 1.9,-0.2 2.4,-0.6 z"
   id="path100" />
	</g><g
   id="g108">
		<g
   id="g106">
			<rect
   x="60.599998"
   y="39.900002"
   class="st0"
   width="1"
   height="14.4"
   id="rect104" />
		</g>
	</g><g
   id="g114">
		<g
   id="g112">
			<rect
   x="192.3"
   y="39.900002"
   class="st0"
   width="1"
   height="14.4"
   id="rect110" />
		</g>
	</g>
<g
   id="g17019"
   transform="matrix(2.6215971,0,0,2.6215971,152.98269,-269.27744)"><g
     id="g15309"
     transform="matrix(0.35277777,0,0,-0.35277777,-13.282464,120.35659)"><path
       d="M 0,0 C -0.268,0.041 -0.514,0.099 -0.738,0.173 V 1.288 C -0.517,1.213 -0.265,1.154 0.016,1.111 0.298,1.067 0.561,1.046 0.806,1.046 c 0.313,0 0.536,0.042 0.67,0.127 0.133,0.084 0.2,0.206 0.2,0.367 0,0.089 -0.019,0.163 -0.058,0.223 C 1.58,1.821 1.512,1.874 1.416,1.921 1.32,1.968 1.182,2.016 1.001,2.063 L 0.561,2.179 C 0.08,2.297 -0.281,2.483 -0.521,2.74 c -0.241,0.256 -0.361,0.591 -0.361,1.004 0,0.537 0.196,0.95 0.59,1.241 0.393,0.291 0.976,0.437 1.748,0.437 0.243,0 0.476,-0.014 0.7,-0.041 C 2.379,5.353 2.581,5.315 2.762,5.267 V 4.152 C 2.596,4.203 2.404,4.242 2.188,4.271 1.972,4.3 1.755,4.314 1.539,4.314 1.156,4.314 0.886,4.271 0.729,4.185 0.571,4.099 0.493,3.976 0.493,3.816 0.493,3.735 0.509,3.666 0.543,3.609 0.577,3.553 0.635,3.503 0.718,3.46 0.801,3.416 0.918,3.374 1.07,3.333 L 1.51,3.222 C 2.039,3.092 2.428,2.898 2.677,2.643 2.926,2.387 3.05,2.05 3.05,1.634 3.05,1.288 2.961,0.987 2.783,0.732 2.605,0.478 2.349,0.281 2.013,0.145 1.678,0.007 1.278,-0.062 0.813,-0.062 0.54,-0.062 0.268,-0.041 0,0"
       style="fill:#00aec3;fill-opacity:1;fill-rule:nonzero;stroke:none"
       id="path15311" /></g><g
     id="g15313"
     transform="matrix(0.35277777,0,0,-0.35277777,-11.799174,120.17403)"><path
       d="M 0,0 C -0.38,0.386 -0.57,0.978 -0.57,1.773 V 4.832 H 0.815 V 1.644 c 0,-0.38 0.081,-0.658 0.24,-0.832 0.16,-0.174 0.402,-0.262 0.727,-0.262 0.324,0 0.567,0.088 0.725,0.262 0.159,0.174 0.238,0.452 0.238,0.832 V 4.832 H 4.102 V 1.773 C 4.102,0.979 3.914,0.389 3.539,0.002 3.164,-0.386 2.578,-0.579 1.782,-0.579 0.974,-0.579 0.38,-0.386 0,0"
       style="fill:#00aec3;fill-opacity:1;fill-rule:nonzero;stroke:none"
       id="path15315" /></g><g
     id="g15317"
     transform="matrix(0.35277777,0,0,-0.35277777,-9.138842,120.00039)"><path
       d="m 0,0 c 0.158,0.046 0.27,0.115 0.336,0.208 0.066,0.092 0.099,0.215 0.099,0.366 0,0.224 -0.07,0.386 -0.209,0.487 -0.14,0.101 -0.371,0.152 -0.693,0.152 h -0.779 v -1.256 c 0.181,-0.017 0.381,-0.025 0.602,-0.025 0.272,0 0.487,0.022 0.644,0.068 M -1.246,3.355 V 2.237 h 0.664 c 0.308,0 0.526,0.047 0.656,0.143 0.13,0.095 0.195,0.243 0.195,0.445 0,0.14 -0.029,0.252 -0.086,0.337 -0.058,0.086 -0.151,0.149 -0.279,0.19 -0.127,0.041 -0.299,0.061 -0.515,0.061 -0.212,0 -0.423,-0.019 -0.635,-0.058 M 1.448,1.344 C 1.622,1.136 1.708,0.86 1.708,0.517 1.708,0.17 1.618,-0.119 1.437,-0.352 1.258,-0.584 0.967,-0.761 0.564,-0.884 c -0.401,-0.122 -0.93,-0.183 -1.586,-0.183 -0.227,0 -0.487,0.009 -0.782,0.03 -0.295,0.02 -0.558,0.048 -0.792,0.081 V 4.21 c 0.263,0.061 0.556,0.108 0.881,0.144 0.324,0.037 0.631,0.055 0.92,0.055 0.816,0 1.412,-0.124 1.791,-0.372 C 1.375,3.789 1.564,3.41 1.564,2.9 1.564,2.624 1.489,2.383 1.341,2.178 1.191,1.972 0.99,1.83 0.738,1.754 1.039,1.688 1.275,1.552 1.448,1.344"
       style="fill:#00aec3;fill-opacity:1;fill-rule:nonzero;stroke:none"
       id="path15319" /></g><g
     id="g15321"
     transform="matrix(0.35277777,0,0,-0.35277777,-8.1053442,120.35659)"><path
       d="M 0,0 C -0.269,0.041 -0.515,0.099 -0.738,0.173 V 1.288 C -0.517,1.213 -0.266,1.154 0.016,1.111 0.297,1.067 0.561,1.046 0.806,1.046 c 0.312,0 0.536,0.042 0.669,0.127 0.133,0.084 0.2,0.206 0.2,0.367 0,0.089 -0.019,0.163 -0.058,0.223 C 1.579,1.821 1.512,1.874 1.416,1.921 1.319,1.968 1.181,2.016 1.001,2.063 l -0.44,0.116 c -0.482,0.118 -0.842,0.304 -1.082,0.561 -0.242,0.256 -0.362,0.591 -0.362,1.004 0,0.537 0.197,0.95 0.59,1.241 0.394,0.291 0.977,0.437 1.748,0.437 0.243,0 0.477,-0.014 0.7,-0.041 C 2.379,5.353 2.581,5.315 2.761,5.267 V 4.152 C 2.596,4.203 2.404,4.242 2.188,4.271 1.971,4.3 1.755,4.314 1.538,4.314 1.156,4.314 0.886,4.271 0.729,4.185 0.57,4.099 0.492,3.976 0.492,3.816 0.492,3.735 0.509,3.666 0.543,3.609 0.576,3.553 0.635,3.503 0.718,3.46 0.801,3.416 0.918,3.374 1.069,3.333 L 1.51,3.222 C 2.038,3.092 2.428,2.898 2.677,2.643 2.926,2.387 3.05,2.05 3.05,1.634 3.05,1.288 2.961,0.987 2.783,0.732 2.604,0.478 2.348,0.281 2.013,0.145 1.677,0.007 1.277,-0.062 0.813,-0.062 0.539,-0.062 0.268,-0.041 0,0"
       style="fill:#00aec3;fill-opacity:1;fill-rule:nonzero;stroke:none"
       id="path15323" /></g><g
     id="g15325"
     transform="matrix(0.35277777,0,0,-0.35277777,-6.3335179,119.96592)"><path
       d="M 0,0 H 2.58 V -1.097 H -1.367 V 4.242 H 2.544 V 3.146 H 0 V 2.179 H 2.172 V 1.082 H 0 Z"
       style="fill:#00aec3;fill-opacity:1;fill-rule:nonzero;stroke:none"
       id="path15327" /></g><g
     id="g15329"
     transform="matrix(0.35277777,0,0,-0.35277777,-5.0161046,120.14266)"><path
       d="m 0,0 c -0.493,0.444 -0.739,1.131 -0.739,2.06 0,0.598 0.114,1.103 0.344,1.513 0.23,0.409 0.567,0.72 1.01,0.929 0.444,0.209 0.985,0.313 1.621,0.313 0.403,0 0.784,-0.039 1.145,-0.119 V 3.567 C 3.039,3.64 2.696,3.676 2.353,3.676 1.973,3.676 1.662,3.62 1.422,3.51 1.181,3.399 1.002,3.227 0.884,2.992 0.766,2.758 0.707,2.451 0.707,2.074 0.707,1.691 0.765,1.383 0.88,1.148 0.996,0.914 1.171,0.743 1.405,0.635 1.64,0.526 1.942,0.472 2.313,0.472 c 0.336,0 0.692,0.051 1.068,0.155 V -0.502 C 3.21,-0.553 3.019,-0.593 2.807,-0.623 2.595,-0.652 2.386,-0.668 2.179,-0.668 1.22,-0.668 0.493,-0.445 0,0"
       style="fill:#00aec3;fill-opacity:1;fill-rule:nonzero;stroke:none"
       id="path15331" /></g><g
     id="g15333"
     transform="matrix(0.35277777,0,0,-0.35277777,-3.1275088,119.32309)"><path
       d="m 0,0 c 0.178,-0.022 0.354,-0.033 0.53,-0.033 0.327,0 0.571,0.059 0.729,0.179 0.159,0.119 0.238,0.312 0.238,0.579 0,0.259 -0.078,0.451 -0.234,0.573 C 1.106,1.421 0.868,1.482 0.549,1.482 0.358,1.482 0.176,1.467 0,1.436 Z M 1.742,-2.919 0.479,-1.05 c -0.072,0 -0.17,0.002 -0.295,0.007 C 0.103,-1.038 0.041,-1.036 0,-1.036 V -2.919 H -1.36 V 2.29 c 0.264,0.061 0.55,0.108 0.859,0.145 0.308,0.036 0.606,0.054 0.897,0.054 0.797,0 1.395,-0.145 1.793,-0.435 0.4,-0.289 0.6,-0.733 0.6,-1.329 C 2.791,0.356 2.706,0.043 2.534,-0.217 2.362,-0.477 2.116,-0.676 1.797,-0.815 l 1.446,-2.104 z"
       style="fill:#00aec3;fill-opacity:1;fill-rule:nonzero;stroke:none"
       id="path15335" /></g><g
     id="g15337"
     transform="matrix(0.35277777,0,0,-0.35277777,-1.3394899,119.96592)"><path
       d="M 0,0 H 2.58 V -1.097 H -1.367 V 4.242 H 2.544 V 3.146 H 0 V 2.179 H 2.172 V 1.082 H 0 Z"
       style="fill:#00aec3;fill-opacity:1;fill-rule:nonzero;stroke:none"
       id="path15339" /></g><g
     id="g15341"
     transform="matrix(0.35277777,0,0,-0.35277777,0.24659892,120.35281)"><path
       d="M 0,0 V 4.195 H -1.648 V 5.339 H 3.038 V 4.195 H 1.39 V 0 Z"
       style="fill:#00aec3;fill-opacity:1;fill-rule:nonzero;stroke:none"
       id="path15343" /></g><g
     id="g15345"
     transform="matrix(0.35277777,0,0,-0.35277777,1.8385792,119.50396)"><path
       d="M 0,0 H 1.237 L 0.617,2.114 Z M 1.941,-2.406 1.555,-1.09 H -0.317 L -0.7,-2.406 h -1.342 l 1.656,5.339 h 2.028 l 1.656,-5.339 z"
       style="fill:#00aec3;fill-opacity:1;fill-rule:nonzero;stroke:none"
       id="path15347" /></g><g
     id="g15349"
     transform="matrix(0.35277777,0,0,-0.35277777,3.6445191,119.32309)"><path
       d="m 0,0 c 0.178,-0.022 0.354,-0.033 0.53,-0.033 0.327,0 0.571,0.059 0.729,0.179 0.159,0.119 0.238,0.312 0.238,0.579 0,0.259 -0.078,0.451 -0.234,0.573 C 1.106,1.421 0.868,1.482 0.549,1.482 0.358,1.482 0.176,1.467 0,1.436 Z M 1.742,-2.919 0.479,-1.05 c -0.072,0 -0.17,0.002 -0.295,0.007 C 0.103,-1.038 0.041,-1.036 0,-1.036 V -2.919 H -1.36 V 2.29 c 0.264,0.061 0.55,0.108 0.859,0.145 0.308,0.036 0.606,0.054 0.897,0.054 0.797,0 1.395,-0.145 1.793,-0.435 0.4,-0.289 0.6,-0.733 0.6,-1.329 C 2.791,0.356 2.706,0.043 2.534,-0.217 2.362,-0.477 2.116,-0.676 1.797,-0.815 l 1.446,-2.104 z"
       style="fill:#00aec3;fill-opacity:1;fill-rule:nonzero;stroke:none"
       id="path15351" /></g><g
     id="g15353"
     transform="matrix(0.35277777,0,0,-0.35277777,4.9770666,118.32917)"><path
       d="M 0,0 0.653,1.118 H 2.074 L 1.22,0 Z M -0.076,-0.397 H 1.31 v -5.339 h -1.386 z"
       style="fill:#00aec3;fill-opacity:1;fill-rule:nonzero;stroke:none"
       id="path15355" /></g><g
     id="g15357"
     transform="matrix(0.35277777,0,0,-0.35277777,6.3234077,119.50396)"><path
       d="M 0,0 H 1.237 L 0.617,2.114 Z M 1.941,-2.406 1.555,-1.09 H -0.317 L -0.7,-2.406 h -1.342 l 1.656,5.339 h 2.028 l 1.656,-5.339 z"
       style="fill:#00aec3;fill-opacity:1;fill-rule:nonzero;stroke:none"
       id="path15359" /></g><g
     id="g15361"
     transform="matrix(0.35277777,0,0,-0.35277777,9.2689609,119.9232)"><path
       d="m 0,0 c 0.221,0.106 0.386,0.278 0.495,0.516 0.109,0.237 0.164,0.551 0.164,0.943 0,0.385 -0.056,0.696 -0.17,0.935 -0.113,0.238 -0.28,0.41 -0.501,0.517 -0.221,0.108 -0.502,0.16 -0.841,0.16 -0.079,0 -0.167,-0.004 -0.263,-0.012 -0.096,-0.008 -0.182,-0.02 -0.256,-0.035 v -3.167 c 0.149,-0.011 0.323,-0.018 0.523,-0.018 0.346,0 0.629,0.054 0.849,0.161 m -1.985,-1.254 c -0.272,0.015 -0.53,0.036 -0.773,0.066 v 5.179 c 0.265,0.058 0.556,0.105 0.873,0.14 0.318,0.034 0.627,0.052 0.928,0.052 1.012,0 1.771,-0.223 2.276,-0.669 0.505,-0.447 0.757,-1.134 0.757,-2.062 0,-0.638 -0.12,-1.157 -0.36,-1.558 -0.24,-0.403 -0.604,-0.698 -1.09,-0.886 -0.485,-0.189 -1.102,-0.283 -1.847,-0.283 -0.238,0 -0.493,0.006 -0.764,0.021"
       style="fill:#00aec3;fill-opacity:1;fill-rule:nonzero;stroke:none"
       id="path15363" /></g><g
     id="g15365"
     transform="matrix(0.35277777,0,0,-0.35277777,10.73313,119.96592)"><path
       d="M 0,0 H 2.58 V -1.097 H -1.367 V 4.242 H 2.544 V 3.146 H 0 V 2.179 H 2.172 V 1.082 H 0 Z"
       style="fill:#00aec3;fill-opacity:1;fill-rule:nonzero;stroke:none"
       id="path15367" /></g><g
     id="g15369"
     transform="matrix(0.35277777,0,0,-0.35277777,-23.835987,122.49082)"><path
       d="m 0,0 v -2.544 c -0.503,-0.081 -0.963,-0.122 -1.382,-0.122 -1.06,0 -1.853,0.225 -2.377,0.675 -0.525,0.449 -0.786,1.133 -0.786,2.049 0,0.904 0.268,1.589 0.806,2.056 0.537,0.466 1.328,0.699 2.372,0.699 0.421,0 0.822,-0.042 1.204,-0.129 V 1.555 c -0.356,0.079 -0.715,0.119 -1.078,0.119 -0.443,0 -0.8,-0.056 -1.072,-0.168 -0.271,-0.111 -0.472,-0.287 -0.6,-0.527 -0.129,-0.239 -0.192,-0.553 -0.19,-0.943 0,-0.539 0.132,-0.935 0.395,-1.19 0.264,-0.255 0.668,-0.383 1.214,-0.383 0.092,0 0.161,10e-4 0.21,0.004 V 0 Z"
       style="fill:#00aec3;fill-opacity:1;fill-rule:nonzero;stroke:none"
       id="path15371" /></g><g
     id="g15373"
     transform="matrix(0.35277777,0,0,-0.35277777,-23.050669,123.02034)"><path
       d="m 0,0 h 2.579 v -1.097 h -3.946 v 5.339 h 3.91 V 3.146 H 0 V 2.179 H 2.172 V 1.082 H 0 Z"
       style="fill:#00aec3;fill-opacity:1;fill-rule:nonzero;stroke:none"
       id="path15375" /></g><g
     id="g15377"
     transform="matrix(0.35277777,0,0,-0.35277777,-21.676917,123.41101)"><path
       d="M 0,0 C -0.268,0.041 -0.514,0.099 -0.738,0.173 V 1.288 C -0.517,1.213 -0.265,1.154 0.016,1.111 0.298,1.067 0.561,1.046 0.806,1.046 c 0.313,0 0.536,0.042 0.67,0.127 0.133,0.084 0.2,0.206 0.2,0.367 0,0.089 -0.019,0.163 -0.058,0.223 C 1.58,1.821 1.512,1.874 1.416,1.921 1.32,1.968 1.182,2.016 1.001,2.063 L 0.561,2.179 C 0.08,2.297 -0.281,2.483 -0.521,2.74 c -0.241,0.256 -0.361,0.591 -0.361,1.004 0,0.537 0.196,0.95 0.59,1.241 0.393,0.291 0.976,0.437 1.748,0.437 0.243,0 0.476,-0.014 0.7,-0.041 C 2.379,5.353 2.581,5.315 2.762,5.267 V 4.152 C 2.596,4.203 2.404,4.242 2.188,4.271 1.972,4.3 1.755,4.314 1.539,4.314 1.156,4.314 0.886,4.271 0.729,4.185 0.571,4.099 0.493,3.976 0.493,3.816 0.493,3.735 0.509,3.666 0.543,3.609 0.577,3.553 0.635,3.503 0.718,3.46 0.801,3.416 0.918,3.374 1.07,3.333 L 1.51,3.222 C 2.039,3.092 2.428,2.898 2.677,2.643 2.926,2.387 3.05,2.05 3.05,1.634 3.05,1.288 2.961,0.987 2.783,0.732 2.605,0.478 2.349,0.281 2.013,0.145 1.678,0.007 1.278,-0.062 0.813,-0.062 0.54,-0.062 0.268,-0.041 0,0"
       style="fill:#00aec3;fill-opacity:1;fill-rule:nonzero;stroke:none"
       id="path15379" /></g><g
     id="g15381"
     transform="matrix(0.35277777,0,0,-0.35277777,-20.030679,123.40723)"><path
       d="M 0,0 V 4.195 H -1.649 V 5.339 H 3.038 V 4.195 H 1.389 V 0 Z"
       style="fill:#00aec3;fill-opacity:1;fill-rule:nonzero;stroke:none"
       id="path15383" /></g><path
     d="m -18.789819,121.52382 h 0.488597 v 1.88348 h -0.488597 z"
     style="fill:#00aec3;fill-opacity:1;fill-rule:nonzero;stroke:none;stroke-width:0.352778"
     id="path15385" /><g
     id="g15387"
     transform="matrix(0.35277777,0,0,-0.35277777,-17.344382,121.3836)"><path
       d="M 0,0 0.653,1.118 H 2.075 L 1.22,0 Z m 1.517,-4.31 c 0.206,0.259 0.309,0.664 0.309,1.218 0,0.574 -0.103,0.994 -0.309,1.259 -0.205,0.265 -0.505,0.396 -0.9,0.396 -0.392,0 -0.691,-0.127 -0.896,-0.385 -0.206,-0.257 -0.309,-0.664 -0.309,-1.219 0,-0.58 0.102,-1.001 0.305,-1.263 0.203,-0.262 0.503,-0.393 0.9,-0.393 0.395,0 0.695,0.129 0.9,0.387 m -2.292,-1.192 c -0.392,0.204 -0.696,0.511 -0.91,0.92 -0.213,0.409 -0.32,0.914 -0.32,1.516 0,0.6 0.107,1.106 0.32,1.514 0.214,0.409 0.518,0.716 0.91,0.92 0.392,0.205 0.856,0.307 1.392,0.307 0.536,0 1.001,-0.102 1.394,-0.307 0.394,-0.204 0.697,-0.512 0.911,-0.922 0.214,-0.41 0.322,-0.914 0.322,-1.512 0,-0.6 -0.108,-1.104 -0.322,-1.512 C 2.708,-4.987 2.405,-5.294 2.011,-5.5 1.618,-5.706 1.153,-5.809 0.617,-5.809 c -0.536,0 -1,0.103 -1.392,0.307"
       style="fill:#00aec3;fill-opacity:1;fill-rule:nonzero;stroke:none"
       id="path15389" /></g><g
     id="g15391"
     transform="matrix(0.35277777,0,0,-0.35277777,-14.718693,121.52379)"><path
       d="M 0,0 H 1.299 V -5.339 H -0.086 L -2.197,-2.07 V -5.339 H -3.496 V 0 H -2.11 L 0,-3.269 Z"
       style="fill:#00aec3;fill-opacity:1;fill-rule:nonzero;stroke:none"
       id="path15393" /></g><g
     id="g15395"
     transform="matrix(0.35277777,0,0,-0.35277777,-11.714084,121.52379)"><path
       d="m 0,0 -1.857,-3.109 v -2.23 h -1.386 v 2.215 L -5.162,0 h 1.457 L -2.521,-1.959 -1.353,0 Z"
       style="fill:#00aec3;fill-opacity:1;fill-rule:nonzero;stroke:none"
       id="path15397" /></g><g
     id="g15399"
     transform="matrix(0.35277777,0,0,-0.35277777,-10.492098,123.02034)"><path
       d="M 0,0 H 2.58 V -1.097 H -1.367 V 4.242 H 2.544 V 3.146 H 0 V 2.179 H 2.172 V 1.082 H 0 Z"
       style="fill:#00aec3;fill-opacity:1;fill-rule:nonzero;stroke:none"
       id="path15401" /></g><g
     id="g15403"
     transform="matrix(0.35277777,0,0,-0.35277777,-7.8018142,121.52379)"><path
       d="M 0,0 H 1.692 V -5.339 H 0.4 v 3.528 l -1.165,-2.745 h -1.118 l -1.165,2.63 V -5.339 H -4.34 V 0 h 1.693 l 1.345,-3.131 z"
       style="fill:#00aec3;fill-opacity:1;fill-rule:nonzero;stroke:none"
       id="path15405" /></g><g
     id="g15407"
     transform="matrix(0.35277777,0,0,-0.35277777,-5.9752368,122.44881)"><path
       d="m 0,0 c 0.159,0.144 0.238,0.382 0.238,0.714 0,0.332 -0.081,0.573 -0.243,0.723 -0.162,0.151 -0.417,0.226 -0.763,0.226 -0.18,0 -0.331,-0.011 -0.451,-0.033 v -1.817 c 0.166,-0.02 0.32,-0.03 0.462,-0.03 0.346,0 0.599,0.072 0.757,0.217 m -2.604,2.521 c 0.584,0.114 1.153,0.17 1.707,0.17 0.834,0 1.456,-0.159 1.865,-0.476 C 1.376,1.897 1.581,1.4 1.581,0.725 1.581,0.078 1.382,-0.411 0.983,-0.743 0.586,-1.075 0,-1.241 -0.771,-1.241 c -0.073,0 -0.171,0.002 -0.296,0.007 l -0.152,0.004 v -1.487 h -1.385 z"
       style="fill:#00aec3;fill-opacity:1;fill-rule:nonzero;stroke:none"
       id="path15409" /></g><g
     id="g15411"
     transform="matrix(0.35277777,0,0,-0.35277777,-5.1797582,123.40723)"><path
       d="M 0,0 V 5.339 H 1.386 V 1.144 H 3.777 V 0 Z"
       style="fill:#00aec3;fill-opacity:1;fill-rule:nonzero;stroke:none"
       id="path15413" /></g><g
     id="g15415"
     transform="matrix(0.35277777,0,0,-0.35277777,-3.2008866,123.02034)"><path
       d="M 0,0 H 2.58 V -1.097 H -1.367 V 4.242 H 2.544 V 3.146 H 0 V 2.179 H 2.172 V 1.082 H 0 Z"
       style="fill:#00aec3;fill-opacity:1;fill-rule:nonzero;stroke:none"
       id="path15417" /></g><g
     id="g15419"
     transform="matrix(0.35277777,0,0,-0.35277777,-0.90162217,122.90389)"><path
       d="M 0,0 C 0.206,0.259 0.309,0.664 0.309,1.218 0.309,1.792 0.206,2.212 0,2.477 -0.205,2.741 -0.506,2.873 -0.9,2.873 -1.292,2.873 -1.591,2.745 -1.797,2.487 -2.002,2.23 -2.104,1.823 -2.104,1.269 c 0,-0.581 0.101,-1.001 0.304,-1.263 0.203,-0.263 0.503,-0.394 0.9,-0.394 0.394,0 0.695,0.129 0.9,0.388 m -2.293,-1.192 c -0.392,0.204 -0.694,0.51 -0.908,0.92 -0.215,0.409 -0.321,0.914 -0.321,1.515 0,0.601 0.106,1.107 0.321,1.515 0.214,0.409 0.516,0.716 0.908,0.92 0.393,0.205 0.856,0.306 1.393,0.306 0.537,0 1.002,-0.101 1.394,-0.306 C 0.888,3.474 1.191,3.166 1.405,2.756 1.619,2.346 1.727,1.842 1.727,1.243 1.727,0.644 1.619,0.14 1.405,-0.269 1.191,-0.678 0.888,-0.984 0.494,-1.19 0.102,-1.396 -0.363,-1.499 -0.9,-1.499 c -0.537,0 -1,0.103 -1.393,0.307"
       style="fill:#00aec3;fill-opacity:1;fill-rule:nonzero;stroke:none"
       id="path15421" /></g><g
     id="g15423"
     transform="matrix(0.35277777,0,0,-0.35277777,1.5209381,122.44881)"><path
       d="m 0,0 c 0.159,0.144 0.238,0.382 0.238,0.714 0,0.332 -0.081,0.573 -0.243,0.723 -0.162,0.151 -0.417,0.226 -0.763,0.226 -0.18,0 -0.331,-0.011 -0.451,-0.033 v -1.817 c 0.166,-0.02 0.32,-0.03 0.462,-0.03 0.346,0 0.599,0.072 0.757,0.217 m -2.604,2.521 c 0.584,0.114 1.153,0.17 1.707,0.17 0.834,0 1.456,-0.159 1.865,-0.476 C 1.376,1.897 1.581,1.4 1.581,0.725 1.581,0.078 1.382,-0.411 0.983,-0.743 0.586,-1.075 0,-1.241 -0.771,-1.241 c -0.073,0 -0.171,0.002 -0.296,0.007 l -0.152,0.004 v -1.487 h -1.385 z"
       style="fill:#00aec3;fill-opacity:1;fill-rule:nonzero;stroke:none"
       id="path15425" /></g><g
     id="g15427"
     transform="matrix(0.35277777,0,0,-0.35277777,2.9210425,121.3836)"><path
       d="M 0,0 0.653,1.118 H 2.074 L 1.22,0 Z m -1.165,-5.229 c -0.38,0.385 -0.57,0.977 -0.57,1.773 v 3.059 h 1.385 v -3.189 c 0,-0.38 0.08,-0.657 0.24,-0.832 0.16,-0.174 0.402,-0.262 0.727,-0.262 0.324,0 0.567,0.088 0.725,0.262 0.159,0.175 0.238,0.452 0.238,0.832 v 3.189 h 1.357 v -3.059 c 0,-0.794 -0.188,-1.385 -0.563,-1.772 -0.375,-0.387 -0.961,-0.581 -1.757,-0.581 -0.808,0 -1.402,0.194 -1.782,0.58"
       style="fill:#00aec3;fill-opacity:1;fill-rule:nonzero;stroke:none"
       id="path15429" /></g><g
     id="g15431"
     transform="matrix(0.35277777,0,0,-0.35277777,5.1703535,123.05481)"><path
       d="m 0,0 c 0.158,0.046 0.27,0.115 0.336,0.208 0.066,0.092 0.099,0.215 0.099,0.366 0,0.224 -0.07,0.386 -0.209,0.487 -0.14,0.101 -0.371,0.152 -0.693,0.152 h -0.779 v -1.256 c 0.181,-0.017 0.381,-0.025 0.602,-0.025 0.272,0 0.487,0.022 0.644,0.068 M -1.246,3.355 V 2.237 h 0.664 c 0.308,0 0.526,0.047 0.656,0.143 0.13,0.095 0.195,0.243 0.195,0.445 0,0.14 -0.029,0.252 -0.086,0.337 -0.058,0.086 -0.151,0.149 -0.279,0.19 -0.127,0.041 -0.299,0.061 -0.515,0.061 -0.212,0 -0.423,-0.019 -0.635,-0.058 M 1.448,1.344 C 1.622,1.136 1.708,0.86 1.708,0.517 1.708,0.17 1.618,-0.119 1.437,-0.352 1.258,-0.584 0.967,-0.761 0.564,-0.884 c -0.401,-0.122 -0.93,-0.183 -1.586,-0.183 -0.227,0 -0.487,0.009 -0.782,0.03 -0.295,0.02 -0.558,0.048 -0.792,0.081 V 4.21 c 0.263,0.061 0.556,0.108 0.881,0.144 0.324,0.037 0.631,0.055 0.92,0.055 0.816,0 1.412,-0.124 1.791,-0.372 C 1.375,3.789 1.564,3.41 1.564,2.9 1.564,2.624 1.489,2.383 1.341,2.178 1.191,1.972 0.99,1.83 0.738,1.754 1.039,1.688 1.275,1.552 1.448,1.344"
       style="fill:#00aec3;fill-opacity:1;fill-rule:nonzero;stroke:none"
       id="path15433" /></g><g
     id="g15435"
     transform="matrix(0.35277777,0,0,-0.35277777,5.9840707,123.40723)"><path
       d="M 0,0 V 5.339 H 1.386 V 1.144 H 3.777 V 0 Z"
       style="fill:#00aec3;fill-opacity:1;fill-rule:nonzero;stroke:none"
       id="path15437" /></g><path
     d="m 7.4804835,121.52382 h 0.48895 v 1.88348 h -0.48895 z"
     style="fill:#00aec3;fill-opacity:1;fill-rule:nonzero;stroke:none;stroke-width:0.352778"
     id="path15439" /><g
     id="g15441"
     transform="matrix(0.35277777,0,0,-0.35277777,8.4796912,123.19708)"><path
       d="m 0,0 c -0.493,0.444 -0.739,1.131 -0.739,2.06 0,0.598 0.114,1.103 0.344,1.513 0.23,0.409 0.567,0.72 1.01,0.929 0.444,0.209 0.985,0.313 1.621,0.313 0.403,0 0.784,-0.039 1.145,-0.119 V 3.567 C 3.039,3.64 2.696,3.676 2.353,3.676 1.973,3.676 1.662,3.62 1.422,3.51 1.181,3.399 1.002,3.227 0.884,2.992 0.766,2.758 0.707,2.451 0.707,2.074 0.707,1.691 0.765,1.383 0.88,1.148 0.996,0.914 1.171,0.743 1.405,0.635 1.64,0.526 1.942,0.472 2.313,0.472 c 0.336,0 0.692,0.051 1.068,0.155 V -0.502 C 3.21,-0.553 3.019,-0.593 2.807,-0.623 2.595,-0.652 2.386,-0.668 2.179,-0.668 1.22,-0.668 0.493,-0.445 0,0"
       style="fill:#00aec3;fill-opacity:1;fill-rule:nonzero;stroke:none"
       id="path15443" /></g><g
     id="g15445"
     transform="matrix(0.35277777,0,0,-0.35277777,11.030451,122.90389)"><path
       d="M 0,0 C 0.206,0.259 0.309,0.664 0.309,1.218 0.309,1.792 0.206,2.212 0,2.477 -0.205,2.741 -0.506,2.873 -0.9,2.873 -1.292,2.873 -1.591,2.745 -1.797,2.487 -2.002,2.23 -2.104,1.823 -2.104,1.269 c 0,-0.581 0.101,-1.001 0.304,-1.263 0.203,-0.263 0.503,-0.394 0.9,-0.394 0.394,0 0.695,0.129 0.9,0.388 m -2.293,-1.192 c -0.392,0.204 -0.694,0.51 -0.908,0.92 -0.215,0.409 -0.321,0.914 -0.321,1.515 0,0.601 0.106,1.107 0.321,1.515 0.214,0.409 0.516,0.716 0.908,0.92 0.393,0.205 0.856,0.306 1.393,0.306 0.537,0 1.002,-0.101 1.394,-0.306 C 0.888,3.474 1.191,3.166 1.405,2.756 1.619,2.346 1.727,1.842 1.727,1.243 1.727,0.644 1.619,0.14 1.405,-0.269 1.191,-0.678 0.888,-0.984 0.494,-1.19 0.102,-1.396 -0.363,-1.499 -0.9,-1.499 c -0.537,0 -1,0.103 -1.393,0.307"
       style="fill:#00aec3;fill-opacity:1;fill-rule:nonzero;stroke:none"
       id="path15447" /></g></g></svg>
